<?xml version="1.0" standalone="no"?>
<!DOCTYPE svg PUBLIC "-//W3C//DTD SVG 20010904//EN"
 "http://www.w3.org/TR/2001/REC-SVG-20010904/DTD/svg10.dtd">
<svg version="1.0" xmlns="http://www.w3.org/2000/svg"
 width="512.000000pt" height="512.000000pt" viewBox="0 0 512.000000 512.000000"
 preserveAspectRatio="xMidYMid meet">

<g transform="translate(0.000000,512.000000) scale(0.100000,-0.100000)"
fill="#000000" stroke="none">
<path d="M1535 4626 c-37 -17 -70 -52 -84 -89 -7 -18 -11 -173 -11 -442 l0
-414 -429 -3 c-416 -3 -430 -4 -457 -24 -53 -39 -69 -71 -69 -134 0 -63 16
-95 69 -134 27 -21 38 -21 566 -21 528 0 539 0 566 21 15 11 37 33 48 48 21
27 21 38 21 566 0 528 0 539 -21 566 -11 15 -32 37 -46 47 -34 25 -113 32
-153 13z"/>
<path d="M3455 4626 c-41 -18 -83 -69 -90 -109 -3 -18 -5 -262 -3 -544 3 -499
4 -512 24 -539 11 -15 33 -37 48 -48 27 -21 38 -21 566 -21 528 0 539 0 566
21 53 39 69 71 69 134 0 63 -16 95 -69 134 -27 20 -41 21 -456 24 l-429 3 -3
429 c-3 415 -4 429 -24 456 -11 15 -32 37 -46 47 -33 25 -113 32 -153 13z"/>
<path d="M575 1746 c-94 -41 -124 -169 -58 -247 50 -59 53 -59 507 -59 l415 0
3 -429 c3 -416 4 -430 24 -457 39 -53 71 -69 134 -69 63 0 95 16 134 69 21 27
21 38 21 566 0 528 0 539 -21 566 -11 15 -33 37 -48 48 -27 21 -40 21 -554 23
-423 2 -533 0 -557 -11z"/>
<path d="M3455 1746 c-41 -18 -83 -69 -90 -109 -3 -18 -5 -262 -3 -544 3 -499
4 -512 24 -539 39 -53 71 -69 134 -69 63 0 95 16 134 69 20 27 21 41 24 457
l3 429 410 0 c458 0 455 0 507 68 22 29 27 46 27 92 0 46 -5 63 -27 92 -53 70
-38 68 -605 68 -400 -1 -514 -4 -538 -14z"/>
</g>
</svg>
